<?xml version="1.0" standalone="no"?>
<!DOCTYPE svg PUBLIC "-//W3C//DTD SVG 20010904//EN"
 "http://www.w3.org/TR/2001/REC-SVG-20010904/DTD/svg10.dtd">
<svg version="1.0" xmlns="http://www.w3.org/2000/svg"
 width="1897.000000pt" height="1897.000000pt" viewBox="0 0 1897.000000 1897.000000"
 preserveAspectRatio="xMidYMid meet">
<metadata>
Created by potrace 1.14, written by Peter Selinger 2001-2017
</metadata>
<g transform="translate(0.000000,1897.000000) scale(0.100000,-0.100000)"
fill="#000000" stroke="none">
<path d="M10400 17883 c-133 -21 -245 -58 -349 -114 -291 -157 -486 -423 -547
-746 -24 -128 -15 -345 20 -470 76 -277 268 -516 526 -656 97 -54 227 -93 400
-122 707 -117 1283 -301 1877 -598 1741 -872 2988 -2490 3387 -4392 14 -66 39
-203 56 -305 45 -269 91 -394 201 -550 139 -197 359 -348 596 -411 101 -27
323 -37 431 -19 411 66 738 357 858 765 21 73 27 118 31 235 4 129 1 166 -26
335 -335 2050 -1389 3881 -2996 5206 -1147 947 -2538 1575 -4024 1819 -174 28
-351 38 -441 23z"/>
<path d="M7610 17759 c-1071 -235 -2179 -736 -3090 -1398 -2043 -1483 -3316
-3764 -3495 -6264 -104 -1460 158 -2881 775 -4208 196 -421 490 -922 773
-1319 626 -875 1429 -1642 2326 -2219 313 -202 687 -410 990 -551 1328 -617
2746 -879 4208 -775 2245 160 4335 1210 5809 2920 852 989 1456 2135 1785
3390 68 257 79 321 79 451 0 478 -306 886 -765 1019 -185 53 -390 55 -577 4
-183 -50 -400 -189 -524 -338 -120 -143 -180 -271 -244 -522 -225 -884 -617
-1686 -1169 -2389 -305 -388 -718 -799 -1106 -1100 -785 -608 -1698 -1026
-2650 -1214 -1224 -242 -2489 -123 -3640 342 -526 212 -1055 518 -1520 880
-388 302 -805 719 -1107 1107 -1141 1467 -1583 3332 -1222 5160 156 792 481
1578 937 2265 406 613 966 1197 1562 1631 650 473 1411 830 2184 1024 307 77
442 146 607 310 314 312 400 791 214 1192 -134 289 -384 498 -695 584 -63 17
-114 22 -240 25 -88 2 -180 -1 -205 -7z"/>
<path d="M10190 14691 c-236 -34 -437 -160 -572 -358 -150 -220 -171 -545 -50
-791 97 -196 268 -345 472 -410 36 -12 132 -35 213 -52 551 -116 1081 -367
1532 -726 142 -113 456 -427 569 -569 359 -451 610 -981 726 -1532 17 -81 40
-177 52 -213 104 -328 410 -550 757 -550 125 0 210 17 315 60 228 95 400 294
466 540 31 116 32 265 1 415 -267 1298 -954 2395 -2001 3194 -554 423 -1237
749 -1913 915 -288 71 -453 93 -567 77z"/>
<path d="M7945 14520 c-93 -10 -153 -27 -320 -90 -1598 -600 -2834 -1973
-3253 -3615 -119 -463 -167 -849 -166 -1325 1 -481 41 -821 150 -1268 316
-1296 1121 -2427 2254 -3167 730 -477 1549 -757 2450 -836 181 -16 692 -17
855 -1 849 82 1569 311 2255 717 1052 623 1869 1607 2283 2750 52 142 67 216
67 332 0 234 -69 401 -235 569 -99 99 -179 150 -306 196 -86 30 -246 51 -323
43 -325 -37 -585 -239 -695 -541 -120 -327 -241 -571 -416 -835 -244 -367
-610 -740 -975 -991 -421 -291 -912 -496 -1405 -587 -254 -47 -367 -56 -680
-56 -303 0 -368 5 -615 46 -1152 191 -2158 942 -2685 2004 -184 372 -299 768
-357 1225 -20 163 -17 661 5 830 95 716 344 1307 785 1865 124 157 413 445
576 574 299 237 603 412 951 548 77 30 162 63 190 74 164 66 323 216 404 383
74 154 98 283 81 437 -14 118 -32 184 -80 282 -148 298 -465 472 -795 437z"/>
<path d="M9185 11965 c-834 -102 -1568 -624 -1940 -1380 -608 -1236 -97 -2732
1140 -3340 1236 -608 2732 -97 3340 1140 608 1236 97 2732 -1140 3340 -254
125 -533 207 -813 240 -154 18 -436 18 -587 0z m1372 -741 c216 -48 407 -178
534 -361 262 -379 181 -909 -182 -1188 -161 -125 -340 -186 -544 -186 -368 0
-685 218 -820 562 -73 185 -74 442 -4 623 29 74 84 172 134 235 202 263 556
389 882 315z"/>
</g>
</svg>
