<?xml version="1.0" standalone="no"?>
<!DOCTYPE svg PUBLIC "-//W3C//DTD SVG 20010904//EN"
 "http://www.w3.org/TR/2001/REC-SVG-20010904/DTD/svg10.dtd">
<svg version="1.0" xmlns="http://www.w3.org/2000/svg"
 width="512.000000pt" height="512.000000pt" viewBox="0 0 512.000000 512.000000"
 preserveAspectRatio="xMidYMid meet">
<metadata>
Created by potrace 1.14, written by Peter Selinger 2001-2017
</metadata>
<g transform="translate(0.000000,512.000000) scale(0.100000,-0.100000)"
fill="#000000" stroke="none">
<path d="M2560 4567 l0 -285 78 -6 c364 -28 641 -123 912 -314 122 -85 327
-290 412 -412 191 -271 286 -548 314 -912 l6 -78 285 0 286 0 -7 113 c-28 442
-161 834 -404 1186 -406 587 -1041 941 -1769 987 l-113 7 0 -286z"/>
<path d="M2166 4814 c-521 -94 -990 -360 -1330 -754 -583 -676 -725 -1591
-375 -2408 227 -529 662 -964 1190 -1191 818 -350 1733 -208 2409 375 369 318
628 754 733 1234 14 63 28 139 32 168 l7 52 -286 0 c-221 0 -287 -3 -290 -12
-2 -7 -15 -64 -29 -125 -72 -305 -220 -567 -457 -803 -185 -186 -352 -296
-586 -389 -203 -80 -385 -114 -619 -115 -474 -1 -878 166 -1215 504 -275 274
-431 584 -491 970 -17 107 -17 380 0 485 42 268 138 510 294 740 81 119 303
341 422 422 188 127 393 219 590 263 55 12 106 24 113 26 9 3 12 69 12 289 l0
285 -22 -1 c-13 0 -58 -7 -102 -15z"/>
<path d="M2560 3766 l0 -216 55 0 c115 0 279 -45 408 -113 296 -156 501 -464
524 -789 l6 -88 215 0 215 0 -6 103 c-37 688 -626 1277 -1314 1314 l-103 6 0
-217z"/>
<path d="M2195 3936 c-117 -32 -188 -61 -303 -121 -376 -199 -638 -549 -729
-975 -26 -121 -26 -439 0 -560 120 -564 553 -997 1117 -1117 121 -26 439 -26
560 0 358 77 664 275 879 569 85 117 181 322 217 462 8 34 17 69 20 79 5 16
-10 17 -219 17 l-225 0 -10 -42 c-29 -115 -155 -313 -258 -408 -120 -111 -277
-199 -429 -240 -114 -31 -322 -39 -435 -16 -173 36 -310 99 -444 206 -181 145
-303 350 -352 590 -23 113 -15 321 16 435 44 165 159 357 276 465 105 97 293
208 383 226 l31 7 0 223 c0 123 -3 224 -7 223 -5 0 -44 -11 -88 -23z"/>
<path d="M2392 3210 c-415 -109 -626 -581 -427 -958 253 -482 937 -482 1190 0
146 276 73 627 -170 827 -160 132 -393 183 -593 131z m503 -199 c86 -39 134
-117 135 -216 1 -209 -259 -312 -401 -158 -109 117 -77 299 66 372 51 27 144
28 200 2z"/>
</g>
</svg>
